<svg xmlns="http://www.w3.org/2000/svg" version="1.0" width="690.000000" height="550.000000" preserveAspectRatio="xMidYMid meet" style=""><rect id="backgroundrect" width="100%" height="100%" x="0" y="0" fill="none" stroke="none"/>
<metadata>
Created by potrace 1.15, written by Peter Selinger 2001-2017
</metadata>

<g class="currentLayer" style=""><title>Layer 1</title><g transform="translate(0,550) scale(0.10000000149011612,-0.10000000149011612) " fill="#ffffff" stroke="none" id="svg_1" class="selected" fill-opacity="1">
<path d="M2200 4682 c-674 -258 -1258 -481 -1297 -496 l-73 -28 0 -489 0 -489 75 0 75 0 2 446 3 446 1215 454 c668 249 1223 454 1233 454 12 0 1608 -591 2400 -890 l57 -21 0 -445 0 -444 75 0 75 0 0 489 c0 456 -1 489 -17 496 -296 114 -2573 979 -2583 981 -8 2 -566 -207 -1240 -464z" id="svg_2" fill="#ffffff" fill-opacity="1"/>
<path d="M3331 4834 c-26 -33 -28 -108 -6 -180 20 -67 20 -68 -20 -87 -55 -26 -111 -83 -136 -140 -23 -50 -24 -62 -27 -339 l-3 -287 38 -73 c34 -65 165 -220 177 -207 2 2 -2 65 -10 139 -7 74 -13 162 -13 196 -1 54 -4 62 -25 72 -13 6 -40 25 -60 42 -28 25 -36 40 -36 66 l0 33 63 -28 c34 -16 70 -32 81 -35 17 -6 18 -13 12 -75 -7 -67 -6 -71 25 -115 18 -25 35 -46 38 -46 3 0 20 22 38 48 30 45 31 50 26 120 -5 66 -4 72 13 72 11 0 47 13 82 30 l62 29 0 -34 c0 -35 -25 -63 -90 -102 -25 -14 -30 -24 -30 -54 0 -19 -7 -107 -15 -194 -8 -87 -13 -160 -10 -163 11 -11 142 137 173 194 l32 62 0 294 c0 191 -4 306 -11 327 -9 27 -8 35 6 51 18 19 17 20 -11 21 -25 0 -26 2 -9 9 18 7 16 9 -13 15 -39 9 -52 25 -20 25 13 0 30 5 38 10 12 8 12 10 -5 10 -11 0 -31 8 -45 16 -25 15 -25 15 12 10 36 -4 36 -4 17 15 -10 10 -25 19 -31 19 -7 1 -24 8 -38 16 -25 15 -24 15 15 10 44 -5 46 -8 -39 45 -31 19 -51 44 -79 97 -41 78 -58 92 -111 92 -25 0 -40 -7 -55 -26z" id="svg_3" fill="#ffffff" fill-opacity="1"/>
<path d="M1550 3401 c-69 -21 -89 -47 -150 -200 -48 -118 -52 -163 -21 -195 19 -18 33 -21 109 -21 103 1 130 14 163 81 29 62 22 74 -46 74 -49 0 -57 -3 -64 -23 -12 -30 -34 -48 -48 -39 -8 5 1 38 31 112 34 84 46 106 64 108 25 4 26 3 12 -32 -9 -26 -9 -26 45 -26 83 0 113 41 85 115 -17 45 -107 68 -180 46z" id="svg_4" fill="#ffffff" fill-opacity="1"/>
<path d="M2212 3397 c-51 -16 -91 -72 -138 -193 -59 -148 -57 -190 7 -213 41 -14 124 -13 169 2 44 15 69 54 120 182 56 144 53 192 -15 221 -39 16 -95 17 -143 1z" id="svg_5" fill="#ffffff" fill-opacity="1"/>
<path d="M2547 3398 c-49 -13 -88 -64 -95 -124 -5 -44 -3 -47 47 -95 54 -52 64 -82 32 -99 -24 -12 -35 1 -26 30 7 23 -21 33 -81 28 -38 -3 -39 -4 -42 -46 -5 -63 16 -88 81 -103 43 -9 65 -9 105 0 57 14 88 42 107 97 18 53 4 92 -50 138 -48 41 -54 56 -29 80 20 20 34 12 34 -20 0 -23 3 -24 60 -24 56 0 60 2 66 26 9 36 -5 73 -37 96 -31 23 -118 31 -172 16z" id="svg_6" fill="#ffffff" fill-opacity="1"/>
<path d="M2899 3401 c-51 -17 -71 -33 -90 -74 -31 -69 -26 -94 31 -149 53 -51 62 -81 31 -98 -23 -12 -34 0 -25 25 9 24 -12 35 -67 35 -52 0 -59 -8 -59 -66 0 -67 80 -106 179 -86 64 14 87 32 113 90 26 57 12 99 -48 148 -47 39 -53 54 -28 78 20 20 34 12 34 -20 0 -23 3 -24 60 -24 56 0 60 2 66 26 9 36 -5 73 -37 96 -28 21 -119 32 -160 19z" id="svg_7" fill="#ffffff" fill-opacity="1"/>
<path d="M5331 3401 c-18 -5 -44 -20 -56 -32 -18 -19 -96 -194 -162 -366 -4 -10 11 -13 56 -13 l62 0 19 45 c16 37 24 45 45 45 25 0 25 0 10 -36 -8 -20 -15 -40 -15 -45 0 -5 26 -9 58 -9 l57 0 63 158 c69 173 76 213 37 238 -28 19 -125 27 -174 15z" id="svg_8" fill="#ffffff" fill-opacity="1"/>
<path d="M1755 3228 c-38 -95 -75 -188 -82 -206 l-14 -33 62 3 63 3 26 65 c25 61 50 85 64 61 4 -5 -3 -33 -14 -62 -13 -31 -17 -56 -12 -61 5 -5 33 -8 63 -6 l53 3 25 64 c23 59 24 65 10 90 -16 27 -15 28 18 50 41 27 77 98 67 136 -13 51 -46 65 -159 65 l-101 0 -69 -172z" id="svg_9" fill="#ffffff" fill-opacity="1"/>
<path d="M3096 3208 c-43 -106 -81 -199 -83 -205 -4 -10 11 -13 55 -13 l60 0 28 70 27 69 80 3 79 3 19 48 19 47 -75 0 c-41 0 -75 4 -75 10 0 5 5 21 12 35 11 24 14 25 103 25 l92 0 17 43 c9 23 16 46 16 50 0 4 -67 7 -148 7 l-148 0 -78 -192z" id="svg_10" fill="#ffffff" fill-opacity="1"/>
<path d="M3503 3383 c-4 -10 -40 -99 -80 -197 -40 -98 -73 -183 -73 -188 0 -5 26 -8 57 -6 l57 3 65 158 64 157 48 0 c27 0 49 -2 49 -4 0 -2 -29 -74 -64 -160 l-65 -156 60 0 c58 0 60 1 73 33 8 17 37 89 66 159 l52 127 50 3 c50 3 52 4 69 46 l18 42 -220 0 c-200 0 -220 -2 -226 -17z" id="svg_11" fill="#ffffff" fill-opacity="1"/>
<path d="M4088 3308 c12 -155 9 -208 -16 -266 l-22 -53 61 3 61 3 25 62 c20 50 45 83 138 180 l114 118 -56 -141 c-61 -155 -63 -180 -16 -211 20 -13 46 -18 98 -17 78 0 123 18 143 56 18 35 142 340 142 350 0 4 -26 8 -59 8 l-58 0 -58 -142 c-62 -153 -70 -168 -91 -168 -22 0 -17 20 40 167 l53 138 -116 3 -116 3 -70 -76 c-38 -42 -73 -75 -77 -75 -5 0 -8 24 -8 53 0 91 -4 97 -66 97 l-54 0 8 -92z" id="svg_12" fill="#ffffff" fill-opacity="1"/>
<path d="M4725 3208 c-42 -106 -80 -199 -82 -205 -4 -10 11 -13 54 -13 l59 0 39 95 c21 52 41 92 45 90 4 -2 12 -29 19 -60 7 -30 18 -55 25 -55 6 0 38 27 71 60 32 33 60 58 62 56 2 -2 -12 -43 -31 -92 -20 -48 -36 -89 -36 -91 0 -2 26 -3 58 -3 l58 0 78 193 c43 105 81 198 83 205 4 9 -10 12 -50 12 -61 0 -75 -8 -174 -104 -29 -27 -55 -47 -58 -44 -3 3 -13 32 -22 64 -21 77 -28 84 -78 84 l-42 0 -78 -192z" id="svg_13" fill="#ffffff" fill-opacity="1"/>
<path d="M2287 2847 l-57 -52 0 -176 0 -177 58 -56 57 -56 154 0 153 0 59 51 59 51 0 183 0 182 -54 52 -55 51 -158 0 -158 -1 -58 -52z m350 -69 c22 -20 23 -28 23 -162 0 -130 -2 -141 -22 -163 -20 -21 -29 -23 -131 -23 -94 0 -113 3 -138 21 l-29 20 0 142 c0 188 -1 187 159 187 104 0 117 -2 138 -22z" id="svg_14" fill="#ffffff" fill-opacity="1"/>
<path d="M4447 2849 l-57 -51 0 -182 0 -182 59 -52 60 -52 151 0 151 0 60 52 59 52 0 182 0 182 -57 51 -57 51 -156 0 -156 0 -57 -51z m350 -71 c22 -20 23 -28 23 -162 0 -187 1 -186 -159 -186 -104 0 -117 2 -138 22 -22 20 -23 28 -23 162 0 187 -1 186 159 186 104 0 117 -2 138 -22z" id="svg_15" fill="#ffffff" fill-opacity="1"/>
<path d="M380 2845 l0 -45 100 0 100 0 0 -230 0 -230 55 0 55 0 0 230 0 230 100 0 100 0 0 45 0 45 -255 0 -255 0 0 -45z" id="svg_16" fill="#ffffff" fill-opacity="1"/>
<path d="M980 2615 l0 -275 55 0 55 0 0 115 0 115 145 0 145 0 0 -115 0 -115 55 0 55 0 0 275 0 275 -55 0 -54 0 -3 -112 -3 -113 -142 -3 -143 -3 0 116 0 115 -55 0 -55 0 0 -275z" id="svg_17" fill="#ffffff" fill-opacity="1"/>
<path d="M1620 2615 l0 -275 55 0 55 0 0 90 0 91 87 -3 87 -3 61 -85 61 -85 68 -3 67 -3 -65 89 c-36 50 -66 94 -66 99 0 5 20 26 45 46 l45 38 0 94 0 93 -51 46 -51 46 -199 0 -199 0 0 -275z m367 163 c18 -17 23 -32 23 -71 0 -81 -10 -87 -157 -87 l-123 0 0 90 0 90 117 0 c106 0 119 -2 140 -22z" id="svg_18" fill="#ffffff" fill-opacity="1"/>
<path d="M2830 2885 c0 -3 34 -120 76 -258 41 -139 77 -260 80 -269 4 -15 17 -18 77 -18 l72 0 59 196 c33 107 62 191 66 187 4 -4 17 -42 29 -83 13 -41 38 -126 57 -188 l35 -113 72 3 72 3 81 270 81 270 -55 3 c-30 2 -56 1 -59 -1 -2 -3 -28 -92 -58 -198 -30 -106 -57 -200 -61 -208 -3 -9 -32 73 -68 194 l-61 210 -67 3 -67 3 -17 -58 c-76 -262 -104 -356 -108 -360 -3 -3 -9 12 -15 33 -6 22 -32 116 -58 209 l-48 170 -58 3 c-31 2 -57 0 -57 -3z" id="svg_19" fill="#ffffff" fill-opacity="1"/>
<path d="M3760 2615 l0 -275 206 0 205 0 55 51 54 52 0 171 0 172 -53 52 -53 52 -207 0 -207 0 0 -275z m383 160 c27 -24 27 -25 27 -156 0 -181 2 -179 -172 -179 l-128 0 0 173 c0 96 3 177 7 180 3 4 58 7 122 7 108 -1 118 -2 144 -25z" id="svg_20" fill="#ffffff" fill-opacity="1"/>
<path d="M4990 2882 c0 -9 60 -210 131 -445 l30 -98 72 3 71 3 29 95 c73 242 89 291 94 286 3 -3 31 -90 63 -193 l57 -188 73 0 72 0 79 260 c43 143 79 266 79 273 0 8 -17 12 -55 12 l-54 0 -16 -52 c-8 -29 -34 -120 -57 -203 -22 -82 -44 -154 -48 -158 -4 -4 -34 86 -67 200 l-59 208 -67 3 c-48 2 -69 -1 -72 -10 -2 -7 -30 -102 -61 -211 -31 -108 -59 -195 -62 -192 -3 2 -31 96 -62 207 l-57 203 -57 3 c-31 2 -56 -1 -56 -6z" id="svg_21" fill="#ffffff" fill-opacity="1"/>
<path d="M5920 2615 l0 -275 55 0 55 0 2 187 3 187 150 -187 150 -187 52 0 53 0 0 275 0 275 -55 0 -55 0 -2 -185 -3 -185 -149 185 -148 185 -54 0 -54 0 0 -275z" id="svg_22" fill="#ffffff" fill-opacity="1"/>
<path d="M840 2175 l0 -45 2605 0 2605 0 0 45 0 45 -2605 0 -2605 0 0 -45z" id="svg_23" fill="#ffffff" fill-opacity="1"/>
<path d="M832 1539 l3 -380 1299 -496 1300 -495 1200 457 c661 252 1247 476 1304 498 l102 39 -2 377 -3 376 -72 3 -73 3 -2 -337 -3 -336 -1215 -454 c-668 -250 -1224 -455 -1235 -455 -11 0 -567 204 -1235 454 l-1215 454 -3 337 -2 336 -75 0 -75 0 2 -381z" id="svg_24" fill="#ffffff" fill-opacity="1"/>
<path d="M1947 1890 c-15 -12 -29 -36 -33 -56 -6 -32 -2 -40 32 -75 36 -37 37 -40 21 -56 -16 -16 -17 -16 -17 5 0 21 -4 23 -42 20 -38 -3 -43 -6 -46 -29 -4 -34 27 -60 80 -66 52 -5 86 11 111 54 23 39 16 66 -26 104 -19 17 -28 33 -24 43 9 23 27 20 27 -4 0 -17 7 -20 39 -20 31 0 40 4 44 22 6 22 -8 57 -27 70 -24 16 -113 8 -139 -12z" id="svg_25" fill="#ffffff" fill-opacity="1"/>
<path d="M2166 1902 c-6 -10 -106 -253 -106 -258 0 -2 44 -4 98 -4 96 0 99 1 110 25 19 41 15 45 -44 45 -73 0 -70 24 3 28 38 2 52 7 56 20 3 9 8 25 12 35 6 15 1 17 -40 17 -73 0 -53 24 24 28 59 3 63 4 73 33 6 17 12 28 14 26 2 -2 -3 -57 -11 -122 -8 -66 -15 -123 -15 -127 0 -4 21 -8 48 -7 l47 0 85 110 c47 61 93 121 103 135 l19 24 -45 0 c-44 0 -46 -1 -102 -75 -32 -41 -59 -75 -61 -75 -2 0 -1 34 3 75 l6 75 -136 0 c-75 0 -138 -4 -141 -8z" id="svg_26" fill="#ffffff" fill-opacity="1"/>
<path d="M2618 1793 c-26 -65 -50 -126 -54 -135 -6 -16 3 -18 94 -18 l100 0 11 31 c6 18 11 34 11 35 0 2 -25 4 -55 4 -42 0 -55 3 -55 15 0 11 12 15 50 15 45 0 51 3 65 30 8 16 15 31 15 35 0 3 -20 5 -45 5 -33 0 -45 4 -45 15 0 12 14 15 63 15 59 0 65 2 75 25 7 14 12 30 12 35 0 6 -42 10 -98 10 l-97 0 -47 -117z" id="svg_27" fill="#ffffff" fill-opacity="1"/>
<path d="M2842 1782 c-29 -70 -52 -131 -52 -135 0 -4 17 -7 38 -7 36 0 38 1 62 63 l24 62 9 -40 c4 -22 10 -50 13 -63 4 -20 10 -23 45 -20 l41 3 42 100 c40 95 43 100 74 103 18 2 32 1 32 -1 0 -3 -15 -41 -34 -84 -54 -127 -54 -123 -8 -123 l39 0 40 103 c40 101 41 102 76 105 26 2 38 9 42 23 4 11 9 19 11 16 2 -2 -18 -57 -45 -123 l-49 -119 30 -3 c44 -5 53 1 68 47 11 35 17 41 42 41 33 0 32 2 13 -43 -20 -48 -20 -47 23 -47 l37 0 47 118 c26 64 50 125 54 135 5 14 0 17 -33 17 -37 0 -39 -2 -58 -50 -17 -44 -23 -50 -48 -50 -19 0 -27 4 -24 13 3 6 12 29 21 49 l16 37 -189 1 -189 0 -28 -67 -29 -67 -8 54 c-11 67 -21 80 -61 80 -31 0 -33 -2 -84 -128z" id="svg_28" fill="#ffffff" fill-opacity="1"/>
<path d="M3723 1895 c-16 -11 -113 -225 -113 -250 0 -3 18 -5 39 -5 34 0 40 4 50 30 5 17 17 30 25 30 19 0 20 -13 5 -41 -10 -19 -8 -20 32 -17 l43 3 38 94 c40 99 46 139 26 159 -17 17 -119 15 -145 -3z" id="svg_29" fill="#ffffff" fill-opacity="1"/>
<path d="M3937 1898 c-3 -7 -28 -68 -55 -135 l-51 -123 40 0 c32 0 41 4 48 23 5 12 17 40 26 62 l18 40 11 -60 11 -60 41 -3 41 -3 55 136 56 136 -41 -3 c-41 -3 -42 -4 -67 -68 l-25 -65 -8 45 c-15 78 -23 90 -61 90 -18 0 -36 -6 -39 -12z" id="svg_30" fill="#ffffff" fill-opacity="1"/>
<path d="M4148 1775 l-55 -135 39 0 c42 0 38 -5 81 100 10 24 10 24 18 -15 19 -90 16 -85 58 -85 22 0 41 6 44 13 3 6 28 67 56 135 l50 123 -41 -3 c-38 -3 -41 -5 -60 -53 -28 -71 -35 -74 -43 -19 -9 62 -19 74 -60 74 -32 0 -33 -1 -87 -135z" id="svg_31" fill="#ffffff" fill-opacity="1"/>
<path d="M4411 1799 c-36 -92 -42 -115 -33 -134 19 -42 130 -46 165 -7 13 15 107 230 107 246 0 3 -17 6 -39 6 l-38 0 -38 -92 c-21 -51 -44 -99 -51 -107 -28 -31 -25 1 10 91 20 51 36 96 36 101 0 4 -17 7 -37 7 l-38 0 -44 -111z" id="svg_32" fill="#ffffff" fill-opacity="1"/>
<path d="M4688 1900 c-15 -9 -41 -65 -97 -207 l-21 -53 41 0 c36 0 42 3 52 30 7 18 19 30 29 30 15 0 16 -4 8 -26 -14 -35 -15 -34 29 -34 l39 0 41 103 c46 113 48 128 25 151 -18 18 -118 22 -146 6z" id="svg_33" fill="#ffffff" fill-opacity="1"/>
<path d="M4900 1906 c0 -2 -25 -63 -54 -135 l-55 -131 82 0 c83 0 83 0 94 30 l11 30 -39 0 c-21 0 -39 2 -39 5 0 2 9 28 21 57 12 29 29 74 40 101 l19 47 -40 0 c-22 0 -40 -2 -40 -4z" id="svg_34" fill="#ffffff" fill-opacity="1"/>
</g></g></svg>